PathFileType	4	(X/Y/Z)	G:\TennisProject\Miami_Dimitrov_Sinner_masked_Sports2D\Miami_Dimitrov_Sinner_masked_Sports2D_m_person01.trc
DataRate	CameraRate	NumFrames	NumMarkers	Units	OrigDataRate	OrigDataStartFrame	OrigNumFrames
25	25	6	22	m	25	62	499
Frame#	Time	Hip			RHip			RKnee			RAnkle			RBigToe			RSmallToe			RHeel			LHip			LKnee			LAnkle			LBigToe			LSmallToe			LHeel			Neck			Head			Nose			RShoulder			RElbow			RWrist			LShoulder			LElbow			LWrist		
		X1	Y1	Z1	X2	Y2	Z2	X3	Y3	Z3	X4	Y4	Z4	X5	Y5	Z5	X6	Y6	Z6	X7	Y7	Z7	X8	Y8	Z8	X9	Y9	Z9	X10	Y10	Z10	X11	Y11	Z11	X12	Y12	Z12	X13	Y13	Z13	X14	Y14	Z14	X15	Y15	Z15	X16	Y16	Z16	X17	Y17	Z17	X18	Y18	Z18	X19	Y19	Z19	X20	Y20	Z20	X21	Y21	Z21	X22	Y22	Z22
62	2.48	12.05558195177839	-7.495148750791654	0.0	12.216857072147441	-7.4744619528210405	0.0	11.978399581835236	-8.381524344413661	0.0	11.874953527902935	-9.308160911645336	0.0	11.453020291192326	-9.512628240731418	0.0	11.549845555969169	-9.458195982196102	0.0	11.959926591123105	-9.44274086348954	0.0	11.910311199549838	-7.598658657206057	0.0	11.85976946228102	-8.602576634806987	0.0	12.54195587704053	-9.20348639244431	0.0	12.642165240200953	-9.645628362887617	0.0	12.606325705674818	-9.598006344210125	0.0	12.734914757376162	-9.27705133240733	0.0	11.454139763303301	-6.372132435458666	0.0	11.167915134481648	-5.927340297903825	0.0	11.225495805076786	-6.241065756907768	0.0	11.822074609371386	-6.250654253423986	0.0	12.32421948469737	-6.106912015392375	0.0	12.585000343560173	-5.932214352614717	0.0	11.339589528866503	-6.764501056593564	0.0	11.503819498211408	-7.329512255387743	0.0	11.654421437252429	-7.916586564761416	0.0
63	2.52	11.98519474521503	-7.495782044558254	0.0	12.143109645193105	-7.515209508790217	0.0	11.987778858665969	-8.35811700069135	0.0	11.967827179463782	-9.287572529236193	0.0	11.60419361023908	-9.515790049651127	0.0	11.701916781560657	-9.46863309514498	0.0	12.048130214220457	-9.424707336565712	0.0	11.819808683977442	-7.612402768340531	0.0	11.61807033508356	-8.597371911585395	0.0	12.256391187831863	-9.17411162596335	0.0	12.297813548081784	-9.568365203595834	0.0	12.269405278930938	-9.538063971573015	0.0	12.445116072337909	-9.258633014846836	0.0	11.419057374997713	-6.341195091093253	0.0	11.190603822107125	-5.885991817544994	0.0	11.192515111940967	-6.209519181698735	0.0	11.786017184681716	-6.291039497280654	0.0	12.251912559817772	-6.253263537150532	0.0	12.456565295109602	-6.153679672437828	0.0	11.28923164870473	-6.698657661236059	0.0	11.494226894059825	-7.231501972583385	0.0	11.717908076595263	-7.773677886308597	0.0
64	2.56	11.924868197876679	-7.54316854004711	0.0	12.105168385235299	-7.569113765347802	0.0	11.99196361569602	-8.353135265954226	0.0	12.11293037321085	-9.27564623254161	0.0	11.81869417030367	-9.496429004381122	0.0	11.911449053923182	-9.467505639510087	0.0	12.192450186232849	-9.422274155012133	0.0	11.734861266708656	-7.654131727670665	0.0	11.39287395217974	-8.583060593858729	0.0	11.91497131517125	-9.263436997175186	0.0	11.776343876346084	-9.631156458164511	0.0	11.79304423411021	-9.618502015575944	0.0	12.08398041902746	-9.349609333918279	0.0	11.38040129752876	-6.347467571003354	0.0	11.196777373656461	-5.886529947626612	0.0	11.180460626811247	-6.1900755418642	0.0	11.76912304797381	-6.349608719084705	0.0	12.198315799616893	-6.390812484578151	0.0	12.401410768547787	-6.346098018303529	0.0	11.217674714060525	-6.6854179667163915	0.0	11.438317478166713	-7.20896347959687	0.0	11.680880252613816	-7.7469707261916945	0.0
65	2.6	11.873555368618465	-7.617058531251366	0.0	12.084710236159518	-7.605352208336479	0.0	11.997247186066367	-8.36214038281434	0.0	12.268075800257488	-9.277829396084895	0.0	12.046488986391076	-9.428574893245983	0.0	12.141563617909084	-9.407772426358274	0.0	12.346985053311734	-9.417923388108921	0.0	11.66424980136929	-7.69559520943305	0.0	11.227902157238573	-8.569451681282098	0.0	11.500824976204155	-9.444649550380518	0.0	11.207240466213923	-9.726476477211717	0.0	11.2476505391798	-9.743328930456125	0.0	11.622100458879697	-9.53636617117097	0.0	11.350243222147613	-6.397797120324693	0.0	11.166202248653596	-5.922070421157961	0.0	11.173641927421109	-6.220616141658565	0.0	11.75782431849655	-6.41490622508894	0.0	12.176882418713507	-6.507451171740261	0.0	12.446115672178754	-6.493643376531366	0.0	11.1540825249881	-6.725444022502349	0.0	11.348756741848101	-7.28683705532236	0.0	11.542994376163593	-7.872343104737321	0.0
66	2.64	11.804570094976974	-7.7169895961821435	0.0	12.027093572966038	-7.675282099533742	0.0	12.011505812538527	-8.379197454241082	0.0	12.402560267571921	-9.258159320840173	0.0	12.264622486753376	-9.377226529906551	0.0	12.38807150659167	-9.346316043420881	0.0	12.485257791003397	-9.398724449306943	0.0	11.591042307176473	-7.775231788806543	0.0	11.112208366257342	-8.607175672642045	0.0	11.065407590087975	-9.61427324484158	0.0	10.789365187823638	-9.757603384474638	0.0	10.782175399590832	-9.806229092997885	0.0	11.124788258577052	-9.730003543053785	0.0	11.313305933576535	-6.490002035295088	0.0	11.132717281416857	-5.985347334608587	0.0	11.160093712605416	-6.302763468936085	0.0	11.725245838949505	-6.512903274508806	0.0	12.170619413367445	-6.619952075937684	0.0	12.55199300471422	-6.5899310744171755	0.0	11.093826967865985	-6.8231428946910055	0.0	11.235011239980798	-7.4367102759132	0.0	11.334520652237698	-8.08648283281555	0.0
67	2.68	11.715734587063249	-7.846579742439873	0.0	11.936684029300075	-7.810247975810127	0.0	12.017415136813653	-8.402506757392219	0.0	12.4905394342025	-9.21132251850032	0.0	12.42701811686019	-9.380762263931583	0.0	12.589517997206308	-9.33469905525014	0.0	12.587327628282912	-9.375134931444029	0.0	11.50196158726838	-7.911977595689282	0.0	11.005179061460389	-8.70358773530599	0.0	10.741311205364408	-9.7124955024956	0.0	10.59891222481681	-9.77191854017757	0.0	10.514550191335209	-9.82748151554963	0.0	10.756976570493949	-9.855189023774594	0.0	11.271541921989545	-6.6166614326055795	0.0	11.12844232399546	-6.079156959739254	0.0	11.151879749468737	-6.417294916649506	0.0	11.674178769169249	-6.652822060747779	0.0	12.173772934528444	-6.746424847198936	0.0	12.665625445041764	-6.6689998084061735	0.0	11.025466373139656	-6.962379730686797	0.0	11.105846228428328	-7.608428686683556	0.0	11.092967959204968	-8.288424183338096	0.0
